<svg width="399" height="399" viewBox="0 0 399 399" fill="none" xmlns="http://www.w3.org/2000/svg">
<path d="M0 37C0 16.5655 16.5655 0 37 0H362C382.435 0 399 16.5655 399 37V362C399 382.435 382.435 399 362 399H37C16.5655 399 0 382.435 0 362V37Z" fill="#5EB1BF"/>
<path d="M200.336 221.601C200.336 220.57 200.177 219.895 199.86 219.578C199.543 219.261 198.868 219.102 197.837 219.102H195.695V160.792H197.956C198.987 160.792 199.662 160.633 199.979 160.316C200.296 159.999 200.455 159.324 200.455 158.293V146.393C200.455 145.362 200.296 144.687 199.979 144.37C199.662 144.053 198.987 143.894 197.956 143.894H126.556C125.525 143.894 124.85 144.053 124.533 144.37C124.216 144.687 124.057 145.362 124.057 146.393V165.671C124.057 166.702 124.216 167.377 124.533 167.694C124.85 168.011 125.525 168.17 126.556 168.17H138.456C139.487 168.17 140.162 168.011 140.479 167.694C140.796 167.377 140.955 166.702 140.955 165.671V163.529H169.753V179.118H136.314C135.283 179.118 134.608 179.277 134.291 179.594C133.974 179.911 133.815 180.586 133.815 181.617V196.492C133.815 197.523 133.974 198.198 134.291 198.515C134.608 198.832 135.283 198.991 136.314 198.991H169.753V219.102H166.897C165.866 219.102 165.191 219.261 164.874 219.578C164.557 219.895 164.398 220.57 164.398 221.601V233.501C164.398 234.532 164.557 235.207 164.874 235.524C165.191 235.841 165.866 236 166.897 236H197.837C198.868 236 199.543 235.841 199.86 235.524C200.177 235.207 200.336 234.532 200.336 233.501V221.601ZM120.12 191.256C121.151 191.256 121.667 190.74 121.667 189.709V178.999C121.667 178.364 121.587 177.928 121.429 177.69C121.191 177.373 120.754 177.055 120.12 176.738C119.723 176.5 118.93 176.103 117.74 175.548C116.47 174.993 114.765 174.398 112.623 173.763C110.401 173.128 107.704 172.573 104.531 172.097C101.278 171.621 97.4304 171.383 92.9878 171.383C87.9898 171.383 83.3488 171.899 79.0648 172.93C74.7808 173.882 71.0918 175.588 67.9978 178.047C64.8244 180.427 62.3651 183.64 60.6198 187.686C58.8744 191.653 58.0018 196.611 58.0018 202.561V216.246H54.7888C53.7574 216.246 53.2418 216.762 53.2418 217.793V234.453C53.2418 235.484 53.7574 236 54.7888 236H80.1358C80.7704 236 81.2068 235.921 81.4448 235.762C81.6034 235.524 81.7621 235.088 81.9208 234.453L82.3968 230.883C83.7454 232.232 85.3718 233.382 87.2758 234.334C88.8624 235.207 90.8458 236 93.2258 236.714C95.6058 237.428 98.3031 237.785 101.318 237.785C104.808 237.785 108.061 237.23 111.076 236.119C114.011 235.088 116.55 233.62 118.692 231.716C120.834 229.812 122.539 227.511 123.809 224.814C124.999 222.117 125.594 219.142 125.594 215.889C125.594 212.24 124.84 209.066 123.333 206.369C121.825 203.672 119.842 201.45 117.383 199.705C114.923 197.88 112.147 196.532 109.053 195.659C105.879 194.707 102.666 194.231 99.4138 194.231C96.1611 194.231 93.0274 194.667 90.0128 195.54C86.9188 196.333 84.1421 197.603 81.6828 199.348C81.6828 197.047 82.0398 195.143 82.7538 193.636C83.4678 192.049 84.4594 190.82 85.7288 189.947C86.9981 188.995 88.5451 188.321 90.3698 187.924C92.1151 187.527 94.0191 187.329 96.0818 187.329C97.6684 187.329 99.2154 187.369 100.723 187.448C102.151 187.527 103.499 187.765 104.769 188.162V189.709C104.769 190.74 105.284 191.256 106.316 191.256H120.12ZM81.6828 215.889C81.6828 214.54 82.0001 213.35 82.6348 212.319C83.1901 211.288 83.9438 210.415 84.8958 209.701C85.8478 208.987 86.9584 208.471 88.2278 208.154C89.4178 207.757 90.6474 207.559 91.9168 207.559C93.1861 207.559 94.4158 207.757 95.6058 208.154C96.7958 208.471 97.8668 208.987 98.8188 209.701C99.7708 210.336 100.524 211.169 101.08 212.2C101.635 213.231 101.913 214.461 101.913 215.889C101.913 218.348 100.921 220.252 98.9378 221.601C96.8751 222.87 94.5744 223.505 92.0358 223.505C90.7664 223.505 89.5368 223.346 88.3468 223.029C87.0774 222.632 85.9668 222.117 85.0148 221.482C83.9834 220.847 83.1901 220.054 82.6348 219.102C82.0001 218.15 81.6828 217.079 81.6828 215.889Z" fill="#FCFCFC"/>
<path d="M183.545 220.601C183.545 219.57 183.704 218.895 184.021 218.578C184.338 218.261 185.013 218.102 186.044 218.102H188.305V159.792H186.163C185.132 159.792 184.457 159.633 184.14 159.316C183.823 158.999 183.664 158.324 183.664 157.293V145.393C183.664 144.362 183.823 143.687 184.14 143.37C184.457 143.053 185.132 142.894 186.163 142.894H211.986C213.017 142.894 213.692 143.053 214.009 143.37C214.326 143.687 214.485 144.362 214.485 145.393V175.143L239.118 144.798C239.753 144.005 240.308 143.489 240.784 143.251C241.339 143.013 242.133 142.894 243.164 142.894H266.607C267.638 142.894 268.313 143.053 268.63 143.37C268.947 143.687 269.106 144.362 269.106 145.393V157.293C269.106 158.324 268.947 158.999 268.63 159.316C268.313 159.633 267.638 159.792 266.607 159.792H254.707L241.974 174.905L263.87 218.102H270.058C271.089 218.102 271.764 218.261 272.081 218.578C272.398 218.895 272.557 219.57 272.557 220.601V232.501C272.557 233.532 272.398 234.207 272.081 234.524C271.764 234.841 271.089 235 270.058 235H247.686C246.655 235 245.901 234.881 245.425 234.643C244.949 234.326 244.473 233.731 243.997 232.858L223.767 195.492L214.485 206.797V218.102H217.341C218.372 218.102 219.047 218.261 219.364 218.578C219.681 218.895 219.84 219.57 219.84 220.601V232.501C219.84 233.532 219.681 234.207 219.364 234.524C219.047 234.841 218.372 235 217.341 235H186.044C185.013 235 184.338 234.841 184.021 234.524C183.704 234.207 183.545 233.532 183.545 232.501V220.601ZM341.091 220.363C341.646 220.839 341.924 221.236 341.924 221.553C341.924 221.632 341.844 221.91 341.686 222.386C341.448 222.941 340.813 224.012 339.782 225.599C338.83 227.186 337.243 228.812 335.022 230.478C332.88 232.144 329.984 233.612 326.335 234.881C322.765 236.15 318.243 236.785 312.769 236.785C307.453 236.785 302.693 235.952 298.489 234.286C294.363 232.62 290.833 230.319 287.898 227.384C285.042 224.369 282.86 220.839 281.353 216.793C279.845 212.668 279.092 208.225 279.092 203.465C279.092 198.705 279.885 194.302 281.472 190.256C283.058 186.21 285.319 182.719 288.255 179.784C291.19 176.849 294.72 174.548 298.846 172.882C302.971 171.216 307.572 170.383 312.65 170.383C317.648 170.383 322.13 171.256 326.097 173.001C330.143 174.746 333.594 177.166 336.45 180.26C339.306 183.354 341.487 187.083 342.995 191.446C344.581 195.73 345.375 200.49 345.375 205.726C345.375 207.075 345.176 207.908 344.78 208.225C344.383 208.542 343.55 208.701 342.281 208.701H303.13C303.13 210.288 303.447 211.716 304.082 212.985C304.716 214.175 305.549 215.206 306.581 216.079C307.691 216.872 308.961 217.507 310.389 217.983C311.817 218.38 313.284 218.578 314.792 218.578C317.172 218.578 319.115 218.3 320.623 217.745C322.13 217.19 323.36 216.595 324.312 215.96C325.264 215.246 326.017 214.611 326.573 214.056C327.128 213.501 327.644 213.223 328.12 213.223C328.437 213.223 328.794 213.342 329.191 213.58C329.587 213.818 329.984 214.056 330.381 214.294L341.091 220.363ZM321.218 199.062C321.218 195.889 320.266 193.548 318.362 192.041C316.537 190.454 314.474 189.661 312.174 189.661C309.873 189.661 307.771 190.454 305.867 192.041C304.042 193.548 303.13 195.889 303.13 199.062H321.218Z" fill="#F4E04D"/>
</svg>
